<?xml version="1.0" encoding="UTF-8" standalone="no"?>
<!DOCTYPE svg PUBLIC "-//W3C//DTD SVG 1.1//EN"
 "http://www.w3.org/Graphics/SVG/1.1/DTD/svg11.dtd">
<!-- Generated by graphviz version 2.50.0 (0)
 -->
<!-- Title: graphname Pages: 1 -->
<svg width="365pt" height="423pt"
 viewBox="0.00 0.00 365.00 423.00" xmlns="http://www.w3.org/2000/svg" xmlns:xlink="http://www.w3.org/1999/xlink">
<g id="graph0" class="graph" transform="scale(1 1) rotate(0) translate(4 419)">
<title>graphname</title>
<polygon fill="white" stroke="transparent" points="-4,4 -4,-419 361,-419 361,4 -4,4"/>
<g id="clust2" class="cluster">
<title>cluster_1</title>
<polygon fill="none" stroke="black" points="8,-8 8,-407 349,-407 349,-8 8,-8"/>
<text text-anchor="middle" x="178.5" y="-391.8" font-family="Times,serif" font-size="14.00">src</text>
</g>
<g id="clust3" class="cluster">
<title>cluster_2</title>
<polygon fill="none" stroke="black" points="29,-154 29,-376 151,-376 151,-154 29,-154"/>
<text text-anchor="middle" x="90" y="-360.8" font-family="Times,serif" font-size="14.00">scan</text>
</g>
<!-- src/index.ts -->
<g id="node1" class="node">
<title>src/index.ts</title>
<polygon fill="orange" stroke="black" points="246,-235.5 246,-271.5 320,-271.5 320,-235.5 246,-235.5"/>
<text text-anchor="middle" x="283" y="-249.8" font-family="Times,serif" font-size="14.00">index.ts</text>
</g>
<!-- src/graph.ts -->
<g id="node2" class="node">
<title>src/graph.ts</title>
<polygon fill="none" stroke="black" points="176.5,-16.5 176.5,-52.5 253.5,-52.5 253.5,-16.5 176.5,-16.5"/>
<text text-anchor="middle" x="215" y="-30.8" font-family="Times,serif" font-size="14.00">graph.ts</text>
</g>
<!-- src/index.ts&#45;&gt;src/graph.ts -->
<g id="edge1" class="edge">
<title>src/index.ts&#45;&gt;src/graph.ts</title>
<path fill="none" stroke="orange" d="M296.42,-235.43C319.24,-204.17 360.33,-136.56 330,-89 315.33,-65.99 287.91,-52.72 263.53,-45.15"/>
<polygon fill="orange" stroke="orange" points="264.24,-41.72 253.66,-42.34 262.32,-48.45 264.24,-41.72"/>
</g>
<!-- src/scan/imports.ts -->
<g id="node3" class="node">
<title>src/scan/imports.ts</title>
<polygon fill="none" stroke="black" points="53,-308.5 53,-344.5 143,-344.5 143,-308.5 53,-308.5"/>
<text text-anchor="middle" x="98" y="-322.8" font-family="Times,serif" font-size="14.00">imports.ts</text>
</g>
<!-- src/index.ts&#45;&gt;src/scan/imports.ts -->
<g id="edge2" class="edge">
<title>src/index.ts&#45;&gt;src/scan/imports.ts</title>
<path fill="none" stroke="orange" d="M245.95,-270.94C219.25,-281.65 182.89,-295.63 152.85,-306.76"/>
<polygon fill="orange" stroke="orange" points="151.52,-303.53 143.34,-310.27 153.94,-310.09 151.52,-303.53"/>
</g>
<!-- src/scan/scan_filter.ts -->
<g id="node4" class="node">
<title>src/scan/scan_filter.ts</title>
<polygon fill="none" stroke="black" points="36.5,-162.5 36.5,-198.5 143.5,-198.5 143.5,-162.5 36.5,-162.5"/>
<text text-anchor="middle" x="90" y="-176.8" font-family="Times,serif" font-size="14.00">scan_filter.ts</text>
</g>
<!-- src/index.ts&#45;&gt;src/scan/scan_filter.ts -->
<g id="edge3" class="edge">
<title>src/index.ts&#45;&gt;src/scan/scan_filter.ts</title>
<path fill="none" stroke="orange" d="M246.96,-235.36C246.64,-235.24 246.32,-235.12 246,-235 215.7,-223.72 181.79,-211.37 153.28,-201.37"/>
<polygon fill="orange" stroke="orange" points="154.43,-198.06 143.83,-198.08 152.12,-204.67 154.43,-198.06"/>
</g>
<!-- src/lib.ts -->
<g id="node5" class="node">
<title>src/lib.ts</title>
<polygon fill="none" stroke="black" points="247,-162.5 247,-198.5 301,-198.5 301,-162.5 247,-162.5"/>
<text text-anchor="middle" x="274" y="-176.8" font-family="Times,serif" font-size="14.00">lib.ts</text>
</g>
<!-- src/index.ts&#45;&gt;src/lib.ts -->
<g id="edge4" class="edge">
<title>src/index.ts&#45;&gt;src/lib.ts</title>
<path fill="none" stroke="orange" d="M274.94,-235.31C273.09,-227.29 271.62,-217.55 270.85,-208.57"/>
<polygon fill="orange" stroke="orange" points="274.35,-208.32 270.3,-198.53 267.36,-208.71 274.35,-208.32"/>
</g>
<!-- src/scan/imports.ts&#45;&gt;src/index.ts -->
<g id="edge5" class="edge">
<title>src/scan/imports.ts&#45;&gt;src/index.ts</title>
<path fill="none" stroke="#49b164" d="M136.45,-308.49C165.51,-296.87 205.4,-281.58 236.29,-270.23"/>
<polygon fill="#49b164" stroke="#49b164" points="237.78,-273.42 245.97,-266.7 235.38,-266.84 237.78,-273.42"/>
</g>
<!-- src/path.ts -->
<g id="node6" class="node">
<title>src/path.ts</title>
<polygon fill="none" stroke="black" points="161.5,-162.5 161.5,-198.5 228.5,-198.5 228.5,-162.5 161.5,-162.5"/>
<text text-anchor="middle" x="195" y="-176.8" font-family="Times,serif" font-size="14.00">path.ts</text>
</g>
<!-- src/scan/imports.ts&#45;&gt;src/path.ts -->
<g id="edge6" class="edge">
<title>src/scan/imports.ts&#45;&gt;src/path.ts</title>
<path fill="none" stroke="#49b164" d="M109.25,-308.29C115.98,-297.87 124.63,-284.26 132,-272 141.74,-255.79 142.47,-250.7 153,-235 159.38,-225.49 166.96,-215.5 173.9,-206.77"/>
<polygon fill="#49b164" stroke="#49b164" points="176.75,-208.81 180.32,-198.84 171.31,-204.41 176.75,-208.81"/>
</g>
<!-- src/scan/scan.ts -->
<g id="node7" class="node">
<title>src/scan/scan.ts</title>
<polygon fill="none" stroke="black" points="56.5,-235.5 56.5,-271.5 123.5,-271.5 123.5,-235.5 56.5,-235.5"/>
<text text-anchor="middle" x="90" y="-249.8" font-family="Times,serif" font-size="14.00">scan.ts</text>
</g>
<!-- src/scan/imports.ts&#45;&gt;src/scan/scan.ts -->
<g id="edge7" class="edge">
<title>src/scan/imports.ts&#45;&gt;src/scan/scan.ts</title>
<path fill="none" stroke="#49b164" d="M90.19,-308.31C88.44,-300.29 87.11,-290.55 86.47,-281.57"/>
<polygon fill="#49b164" stroke="#49b164" points="89.97,-281.38 86.06,-271.53 82.97,-281.66 89.97,-281.38"/>
</g>
<!-- src/utils.ts -->
<g id="node8" class="node">
<title>src/utils.ts</title>
<polygon fill="none" stroke="black" points="162,-235.5 162,-271.5 228,-271.5 228,-235.5 162,-235.5"/>
<text text-anchor="middle" x="195" y="-249.8" font-family="Times,serif" font-size="14.00">utils.ts</text>
</g>
<!-- src/scan/imports.ts&#45;&gt;src/utils.ts -->
<g id="edge8" class="edge">
<title>src/scan/imports.ts&#45;&gt;src/utils.ts</title>
<path fill="none" stroke="#49b164" d="M121.48,-308.31C134.11,-299.07 149.86,-287.54 163.53,-277.53"/>
<polygon fill="#49b164" stroke="#49b164" points="165.73,-280.26 171.74,-271.53 161.6,-274.61 165.73,-280.26"/>
</g>
<!-- src/scan/scan_filter.ts&#45;&gt;src/index.ts -->
<g id="edge14" class="edge">
<title>src/scan/scan_filter.ts&#45;&gt;src/index.ts</title>
<path fill="none" stroke="#181ece" d="M129.59,-198.55C157.23,-208.98 194.78,-222.64 228,-235 230.67,-235.99 233.41,-237.02 236.2,-238.06"/>
<polygon fill="#181ece" stroke="#181ece" points="235.16,-241.41 245.75,-241.61 237.59,-234.85 235.16,-241.41"/>
</g>
<!-- src/lib.ts&#45;&gt;src/index.ts -->
<g id="edge15" class="edge">
<title>src/lib.ts&#45;&gt;src/index.ts</title>
<path fill="none" stroke="#01957f" d="M282.02,-198.53C283.88,-206.53 285.36,-216.27 286.13,-225.25"/>
<polygon fill="#01957f" stroke="#01957f" points="282.64,-225.53 286.7,-235.31 289.63,-225.13 282.64,-225.53"/>
</g>
<!-- src/lib.ts&#45;&gt;src/graph.ts -->
<g id="edge16" class="edge">
<title>src/lib.ts&#45;&gt;src/graph.ts</title>
<path fill="none" stroke="#01957f" d="M249.99,-162.35C245.72,-159.47 241.27,-156.59 237,-154 214.22,-140.2 197.75,-148.82 184,-126 171.79,-105.74 182.76,-80.01 194.9,-61.16"/>
<polygon fill="#01957f" stroke="#01957f" points="197.89,-63 200.67,-52.78 192.12,-59.03 197.89,-63"/>
</g>
<!-- src/lib.ts&#45;&gt;src/scan/scan_filter.ts -->
<g id="edge19" class="edge">
<title>src/lib.ts&#45;&gt;src/scan/scan_filter.ts</title>
<path fill="none" stroke="#01957f" d="M256.94,-198.59C248.93,-205.79 238.78,-213.24 228,-217 197.78,-227.53 186.98,-225 156,-217 145.13,-214.19 134.13,-209.17 124.32,-203.73"/>
<polygon fill="#01957f" stroke="#01957f" points="126.07,-200.71 115.68,-198.68 122.54,-206.75 126.07,-200.71"/>
</g>
<!-- src/lib.ts&#45;&gt;src/scan/scan.ts -->
<g id="edge18" class="edge">
<title>src/lib.ts&#45;&gt;src/scan/scan.ts</title>
<path fill="none" stroke="#01957f" d="M246.69,-194.89C243.45,-196.33 240.17,-197.74 237,-199 192.29,-216.81 176.79,-216.14 133.22,-232.64"/>
<polygon fill="#01957f" stroke="#01957f" points="131.85,-229.42 123.8,-236.31 134.39,-235.94 131.85,-229.42"/>
</g>
<!-- src/post_process.ts -->
<g id="node9" class="node">
<title>src/post_process.ts</title>
<polygon fill="none" stroke="black" points="193.5,-89.5 193.5,-125.5 320.5,-125.5 320.5,-89.5 193.5,-89.5"/>
<text text-anchor="middle" x="257" y="-103.8" font-family="Times,serif" font-size="14.00">post_process.ts</text>
</g>
<!-- src/lib.ts&#45;&gt;src/post_process.ts -->
<g id="edge17" class="edge">
<title>src/lib.ts&#45;&gt;src/post_process.ts</title>
<path fill="none" stroke="#01957f" d="M269.88,-162.31C267.94,-154.2 265.58,-144.34 263.41,-135.28"/>
<polygon fill="#01957f" stroke="#01957f" points="266.81,-134.44 261.08,-125.53 260,-136.07 266.81,-134.44"/>
</g>
<!-- src/scan/scan.ts&#45;&gt;src/index.ts -->
<g id="edge9" class="edge">
<title>src/scan/scan.ts&#45;&gt;src/index.ts</title>
<path fill="none" stroke="#49b652" d="M107.06,-271.59C115.07,-278.79 125.22,-286.24 136,-290 174.61,-303.46 188.85,-301.81 228,-290 236.93,-287.31 245.74,-282.64 253.6,-277.52"/>
<polygon fill="#49b652" stroke="#49b652" points="255.84,-280.23 262.03,-271.64 251.83,-274.49 255.84,-280.23"/>
</g>
<!-- src/scan/scan.ts&#45;&gt;src/graph.ts -->
<g id="edge11" class="edge">
<title>src/scan/scan.ts&#45;&gt;src/graph.ts</title>
<path fill="none" stroke="#49b652" d="M60.02,-235.32C47.35,-226.29 33.93,-213.98 27,-199 18.6,-180.85 17.34,-171.51 27,-154 56.52,-100.5 121.47,-67.84 166.71,-50.71"/>
<polygon fill="#49b652" stroke="#49b652" points="168.15,-53.92 176.33,-47.19 165.74,-47.34 168.15,-53.92"/>
</g>
<!-- src/scan/scan.ts&#45;&gt;src/scan/imports.ts -->
<g id="edge12" class="edge">
<title>src/scan/scan.ts&#45;&gt;src/scan/imports.ts</title>
<path fill="none" stroke="#49b652" d="M97.78,-271.53C99.53,-279.53 100.87,-289.27 101.52,-298.25"/>
<polygon fill="#49b652" stroke="#49b652" points="98.02,-298.47 101.94,-308.31 105.01,-298.17 98.02,-298.47"/>
</g>
<!-- src/scan/scan.ts&#45;&gt;src/scan/scan_filter.ts -->
<g id="edge10" class="edge">
<title>src/scan/scan.ts&#45;&gt;src/scan/scan_filter.ts</title>
<path fill="none" stroke="#49b652" d="M90,-235.31C90,-227.29 90,-217.55 90,-208.57"/>
<polygon fill="#49b652" stroke="#49b652" points="93.5,-208.53 90,-198.53 86.5,-208.53 93.5,-208.53"/>
</g>
<!-- src/scan/scan.ts&#45;&gt;src/path.ts -->
<g id="edge13" class="edge">
<title>src/scan/scan.ts&#45;&gt;src/path.ts</title>
<path fill="none" stroke="#49b652" d="M115.15,-235.49C128.95,-226.17 146.24,-214.47 161.2,-204.36"/>
<polygon fill="#49b652" stroke="#49b652" points="163.37,-207.11 169.69,-198.61 159.45,-201.32 163.37,-207.11"/>
</g>
<!-- src/post_process.ts&#45;&gt;src/index.ts -->
<g id="edge20" class="edge">
<title>src/post_process.ts&#45;&gt;src/index.ts</title>
<path fill="none" stroke="#21d7de" d="M285.58,-125.67C295.19,-133.07 304.79,-142.65 310,-154 320.79,-177.47 310.55,-206.13 299.73,-226.47"/>
<polygon fill="#21d7de" stroke="#21d7de" points="296.68,-224.75 294.79,-235.18 302.76,-228.21 296.68,-224.75"/>
</g>
<!-- src/post_process.ts&#45;&gt;src/graph.ts -->
<g id="edge21" class="edge">
<title>src/post_process.ts&#45;&gt;src/graph.ts</title>
<path fill="none" stroke="#21d7de" d="M246.83,-89.31C241.88,-80.94 235.82,-70.7 230.32,-61.4"/>
<polygon fill="#21d7de" stroke="#21d7de" points="233.18,-59.35 225.07,-52.53 227.15,-62.92 233.18,-59.35"/>
</g>
</g>
</svg>
