<?xml version="1.0" encoding="UTF-8" standalone="no"?>
<!DOCTYPE svg PUBLIC "-//W3C//DTD SVG 1.1//EN"
 "http://www.w3.org/Graphics/SVG/1.1/DTD/svg11.dtd">
<!-- Generated by graphviz version 3.0.0 (0)
 -->
<!-- Title: graphname Pages: 1 -->
<svg width="2382pt" height="605pt"
 viewBox="0.00 0.00 2381.96 605.00" xmlns="http://www.w3.org/2000/svg" xmlns:xlink="http://www.w3.org/1999/xlink">
<g id="graph0" class="graph" transform="scale(1 1) rotate(0) translate(4 601)">
<title>graphname</title>
<polygon fill="white" stroke="transparent" points="-4,4 -4,-601 2377.96,-601 2377.96,4 -4,4"/>
<g id="clust2" class="cluster">
<title>cluster_1</title>
<polygon fill="none" stroke="black" points="24.96,-8 24.96,-589 2365.96,-589 2365.96,-8 24.96,-8"/>
<text text-anchor="middle" x="1195.46" y="-573.8" font-family="Times,serif" font-size="14.00">src</text>
</g>
<g id="clust3" class="cluster">
<title>cluster_2</title>
<polygon fill="none" stroke="black" points="44.96,-16 44.96,-356 1743.96,-356 1743.96,-16 44.96,-16"/>
<text text-anchor="middle" x="894.46" y="-340.8" font-family="Times,serif" font-size="14.00">components</text>
</g>
<g id="clust4" class="cluster">
<title>cluster_3</title>
<polygon fill="none" stroke="black" points="677.96,-173 677.96,-325 823.96,-325 823.96,-173 677.96,-173"/>
<text text-anchor="middle" x="750.96" y="-309.8" font-family="Times,serif" font-size="14.00">QueryEditor</text>
</g>
<g id="clust5" class="cluster">
<title>cluster_4</title>
<polygon fill="none" stroke="black" points="515.96,-89 515.96,-325 669.96,-325 669.96,-89 515.96,-89"/>
<text text-anchor="middle" x="592.96" y="-309.8" font-family="Times,serif" font-size="14.00">SearchResult</text>
</g>
<g id="clust6" class="cluster">
<title>cluster_5</title>
<polygon fill="none" stroke="black" points="2143.96,-173 2143.96,-249 2357.96,-249 2357.96,-173 2143.96,-173"/>
<text text-anchor="middle" x="2250.96" y="-233.8" font-family="Times,serif" font-size="14.00">providers</text>
</g>
<g id="clust7" class="cluster">
<title>cluster_6</title>
<polygon fill="none" stroke="black" points="1829.96,-173 1829.96,-249 1919.96,-249 1919.96,-173 1829.96,-173"/>
<text text-anchor="middle" x="1874.96" y="-233.8" font-family="Times,serif" font-size="14.00">services</text>
</g>
<g id="clust8" class="cluster">
<title>cluster_7</title>
<polygon fill="none" stroke="black" points="1863.96,-16 1863.96,-165 2265.96,-165 2265.96,-16 1863.96,-16"/>
<text text-anchor="middle" x="2064.96" y="-149.8" font-family="Times,serif" font-size="14.00">utils</text>
</g>
<g id="clust9" class="cluster">
<title>cluster_8</title>
<polygon fill="none" stroke="black" points="826.96,-364 826.96,-513 1466.96,-513 1466.96,-364 826.96,-364"/>
<text text-anchor="middle" x="1146.96" y="-497.8" font-family="Times,serif" font-size="14.00">views</text>
</g>
<!-- src/index.tsx -->
<g id="node1" class="node">
<title>src/index.tsx</title>
<polygon fill="orange" stroke="black" points="1229.96,-521.5 1229.96,-557.5 1311.96,-557.5 1311.96,-521.5 1229.96,-521.5"/>
<text text-anchor="middle" x="1270.96" y="-535.8" font-family="Times,serif" font-size="14.00">index.tsx</text>
</g>
<!-- src/views/App.tsx -->
<g id="node2" class="node">
<title>src/views/App.tsx</title>
<polygon fill="none" stroke="black" points="956.46,-445.5 956.46,-481.5 1027.46,-481.5 1027.46,-445.5 956.46,-445.5"/>
<text text-anchor="middle" x="991.96" y="-459.8" font-family="Times,serif" font-size="14.00">App.tsx</text>
</g>
<!-- src/index.tsx&#45;&gt;src/views/App.tsx -->
<g id="edge1" class="edge">
<title>src/index.tsx&#45;&gt;src/views/App.tsx</title>
<path fill="none" stroke="orange" d="M1229.52,-537.81C1170.34,-536.2 1065.13,-530.85 1031.96,-513 1022.16,-507.72 1013.82,-498.95 1007.33,-490.31"/>
<polygon fill="orange" stroke="orange" points="1010.04,-488.08 1001.48,-481.84 1004.29,-492.06 1010.04,-488.08"/>
</g>
<!-- src/reportWebVitals.ts -->
<g id="node3" class="node">
<title>src/reportWebVitals.ts</title>
<polygon fill="none" stroke="black" points="1475.46,-445.5 1475.46,-481.5 1626.46,-481.5 1626.46,-445.5 1475.46,-445.5"/>
<text text-anchor="middle" x="1550.96" y="-459.8" font-family="Times,serif" font-size="14.00">reportWebVitals.ts</text>
</g>
<!-- src/index.tsx&#45;&gt;src/reportWebVitals.ts -->
<g id="edge2" class="edge">
<title>src/index.tsx&#45;&gt;src/reportWebVitals.ts</title>
<path fill="none" stroke="orange" d="M1312.33,-538.21C1353.59,-536.77 1418.25,-531.4 1470.96,-513 1488.23,-506.97 1505.79,-496.86 1520.04,-487.42"/>
<polygon fill="orange" stroke="orange" points="1522.17,-490.21 1528.46,-481.68 1518.22,-484.43 1522.17,-490.21"/>
</g>
<!-- src/components/TopBar.tsx -->
<g id="node4" class="node">
<title>src/components/TopBar.tsx</title>
<polygon fill="none" stroke="black" points="413.96,-257.5 413.96,-293.5 505.96,-293.5 505.96,-257.5 413.96,-257.5"/>
<text text-anchor="middle" x="459.96" y="-271.8" font-family="Times,serif" font-size="14.00">TopBar.tsx</text>
</g>
<!-- src/views/App.tsx&#45;&gt;src/components/TopBar.tsx -->
<g id="edge3" class="edge">
<title>src/views/App.tsx&#45;&gt;src/components/TopBar.tsx</title>
<path fill="none" stroke="#cd8a01" d="M956.46,-463.37C871.73,-463.73 654.14,-454.3 511.96,-356 493.08,-342.94 479.36,-320.57 470.76,-302.89"/>
<polygon fill="#cd8a01" stroke="#cd8a01" points="473.87,-301.26 466.52,-293.63 467.51,-304.18 473.87,-301.26"/>
</g>
<!-- src/components/SideBar.tsx -->
<g id="node5" class="node">
<title>src/components/SideBar.tsx</title>
<polygon fill="none" stroke="black" points="833.96,-257.5 833.96,-293.5 931.96,-293.5 931.96,-257.5 833.96,-257.5"/>
<text text-anchor="middle" x="882.96" y="-271.8" font-family="Times,serif" font-size="14.00">SideBar.tsx</text>
</g>
<!-- src/views/App.tsx&#45;&gt;src/components/SideBar.tsx -->
<g id="edge4" class="edge">
<title>src/views/App.tsx&#45;&gt;src/components/SideBar.tsx</title>
<path fill="none" stroke="#cd8a01" d="M956.37,-462.33C917.38,-459.99 856.45,-449.55 826.96,-409 815.2,-392.82 821.35,-383.2 826.96,-364 833.69,-341 848.52,-318.31 861.22,-301.8"/>
<polygon fill="#cd8a01" stroke="#cd8a01" points="864.13,-303.77 867.62,-293.76 858.66,-299.41 864.13,-303.77"/>
</g>
<!-- src/views/SearchView.tsx -->
<g id="node6" class="node">
<title>src/views/SearchView.tsx</title>
<polygon fill="none" stroke="black" points="1333.46,-372.5 1333.46,-408.5 1458.46,-408.5 1458.46,-372.5 1333.46,-372.5"/>
<text text-anchor="middle" x="1395.96" y="-386.8" font-family="Times,serif" font-size="14.00">SearchView.tsx</text>
</g>
<!-- src/views/App.tsx&#45;&gt;src/views/SearchView.tsx -->
<g id="edge5" class="edge">
<title>src/views/App.tsx&#45;&gt;src/views/SearchView.tsx</title>
<path fill="none" stroke="#cd8a01" d="M1027.54,-446.33C1029.02,-445.85 1030.5,-445.4 1031.96,-445 1154.99,-411.28 1193.46,-431.44 1323.3,-408.97"/>
<polygon fill="#cd8a01" stroke="#cd8a01" points="1324,-412.4 1333.23,-407.2 1322.77,-405.51 1324,-412.4"/>
</g>
<!-- src/views/IndexesView.tsx -->
<g id="node7" class="node">
<title>src/views/IndexesView.tsx</title>
<polygon fill="none" stroke="black" points="835.46,-372.5 835.46,-408.5 966.46,-408.5 966.46,-372.5 835.46,-372.5"/>
<text text-anchor="middle" x="900.96" y="-386.8" font-family="Times,serif" font-size="14.00">IndexesView.tsx</text>
</g>
<!-- src/views/App.tsx&#45;&gt;src/views/IndexesView.tsx -->
<g id="edge6" class="edge">
<title>src/views/App.tsx&#45;&gt;src/views/IndexesView.tsx</title>
<path fill="none" stroke="#cd8a01" d="M969.94,-445.31C958.2,-436.16 943.59,-424.76 930.85,-414.82"/>
<polygon fill="#cd8a01" stroke="#cd8a01" points="932.83,-411.92 922.79,-408.53 928.52,-417.44 932.83,-411.92"/>
</g>
<!-- src/views/ClusterMembersView.tsx -->
<g id="node8" class="node">
<title>src/views/ClusterMembersView.tsx</title>
<polygon fill="none" stroke="black" points="984.96,-372.5 984.96,-408.5 1180.96,-408.5 1180.96,-372.5 984.96,-372.5"/>
<text text-anchor="middle" x="1082.96" y="-386.8" font-family="Times,serif" font-size="14.00">ClusterMembersView.tsx</text>
</g>
<!-- src/views/App.tsx&#45;&gt;src/views/ClusterMembersView.tsx -->
<g id="edge7" class="edge">
<title>src/views/App.tsx&#45;&gt;src/views/ClusterMembersView.tsx</title>
<path fill="none" stroke="#cd8a01" d="M1013.99,-445.31C1025.73,-436.16 1040.34,-424.76 1053.08,-414.82"/>
<polygon fill="#cd8a01" stroke="#cd8a01" points="1055.41,-417.44 1061.14,-408.53 1051.1,-411.92 1055.41,-417.44"/>
</g>
<!-- src/utils/theme.ts -->
<g id="node9" class="node">
<title>src/utils/theme.ts</title>
<polygon fill="none" stroke="black" points="1871.96,-97.5 1871.96,-133.5 1951.96,-133.5 1951.96,-97.5 1871.96,-97.5"/>
<text text-anchor="middle" x="1911.96" y="-111.8" font-family="Times,serif" font-size="14.00">theme.ts</text>
</g>
<!-- src/views/App.tsx&#45;&gt;src/utils/theme.ts -->
<g id="edge8" class="edge">
<title>src/views/App.tsx&#45;&gt;src/utils/theme.ts</title>
<path fill="none" stroke="#cd8a01" d="M956.39,-461.38C790.72,-455.79 100.32,-428.25 40.96,-356 -10.67,-293.16 -16.18,-230.87 40.96,-173 47.14,-166.74 665.18,-165.23 673.96,-165 1135.73,-153.04 1693.97,-127.02 1861.87,-118.94"/>
<polygon fill="#cd8a01" stroke="#cd8a01" points="1862.08,-122.43 1871.9,-118.46 1861.74,-115.44 1862.08,-122.43"/>
</g>
<!-- src/views/IndexView.tsx -->
<g id="node10" class="node">
<title>src/views/IndexView.tsx</title>
<polygon fill="none" stroke="black" points="1198.96,-372.5 1198.96,-408.5 1314.96,-408.5 1314.96,-372.5 1198.96,-372.5"/>
<text text-anchor="middle" x="1256.96" y="-386.8" font-family="Times,serif" font-size="14.00">IndexView.tsx</text>
</g>
<!-- src/views/App.tsx&#45;&gt;src/views/IndexView.tsx -->
<g id="edge9" class="edge">
<title>src/views/App.tsx&#45;&gt;src/views/IndexView.tsx</title>
<path fill="none" stroke="#cd8a01" d="M1027.6,-446.51C1029.07,-445.98 1030.52,-445.47 1031.96,-445 1097.43,-423.43 1118.23,-425.84 1189.04,-409.16"/>
<polygon fill="#cd8a01" stroke="#cd8a01" points="1189.98,-412.53 1198.89,-406.79 1188.35,-405.72 1189.98,-412.53"/>
</g>
<!-- src/components/LayoutUtils.tsx -->
<g id="node11" class="node">
<title>src/components/LayoutUtils.tsx</title>
<polygon fill="none" stroke="black" points="381.96,-181.5 381.96,-217.5 507.96,-217.5 507.96,-181.5 381.96,-181.5"/>
<text text-anchor="middle" x="444.96" y="-195.8" font-family="Times,serif" font-size="14.00">LayoutUtils.tsx</text>
</g>
<!-- src/views/App.tsx&#45;&gt;src/components/LayoutUtils.tsx -->
<g id="edge10" class="edge">
<title>src/views/App.tsx&#45;&gt;src/components/LayoutUtils.tsx</title>
<path fill="none" stroke="#cd8a01" d="M956.4,-462.98C827.17,-463.88 385.8,-459.25 303.96,-356 276.63,-321.52 274.7,-289.86 303.96,-257 314.23,-245.47 358.49,-254.35 372.96,-249 388.7,-243.18 404.36,-233.25 417.04,-223.89"/>
<polygon fill="#cd8a01" stroke="#cd8a01" points="419.5,-226.42 425.31,-217.56 415.24,-220.86 419.5,-226.42"/>
</g>
<!-- src/providers/LocalStorageProvider.tsx -->
<g id="node12" class="node">
<title>src/providers/LocalStorageProvider.tsx</title>
<polygon fill="none" stroke="black" points="2152.46,-181.5 2152.46,-217.5 2349.46,-217.5 2349.46,-181.5 2152.46,-181.5"/>
<text text-anchor="middle" x="2250.96" y="-195.8" font-family="Times,serif" font-size="14.00">LocalStorageProvider.tsx</text>
</g>
<!-- src/views/App.tsx&#45;&gt;src/providers/LocalStorageProvider.tsx -->
<g id="edge11" class="edge">
<title>src/views/App.tsx&#45;&gt;src/providers/LocalStorageProvider.tsx</title>
<path fill="none" stroke="#cd8a01" d="M1027.52,-446.24C1029.01,-445.78 1030.49,-445.37 1031.96,-445 1280.64,-382.87 1972.64,-503.93 2181.96,-356 2224.37,-326.03 2241.07,-263.88 2247.38,-227.89"/>
<polygon fill="#cd8a01" stroke="#cd8a01" points="2250.9,-228.05 2249.02,-217.63 2243.98,-226.95 2250.9,-228.05"/>
</g>
<!-- src/components/SideBar.tsx&#45;&gt;src/components/LayoutUtils.tsx -->
<g id="edge14" class="edge">
<title>src/components/SideBar.tsx&#45;&gt;src/components/LayoutUtils.tsx</title>
<path fill="none" stroke="#f2dd57" d="M833.96,-258.15C831.94,-257.72 829.94,-257.33 827.96,-257 793.33,-251.17 545.24,-260.25 511.96,-249 496.6,-243.81 481.75,-233.76 469.96,-224.15"/>
<polygon fill="#f2dd57" stroke="#f2dd57" points="472.19,-221.45 462.31,-217.63 467.65,-226.78 472.19,-221.45"/>
</g>
<!-- src/components/SideBar.tsx&#45;&gt;src/providers/LocalStorageProvider.tsx -->
<g id="edge12" class="edge">
<title>src/components/SideBar.tsx&#45;&gt;src/providers/LocalStorageProvider.tsx</title>
<path fill="none" stroke="#f2dd57" d="M932.11,-258.63C935.08,-257.99 938.05,-257.44 940.96,-257 1059.07,-239.12 1897.18,-261.58 2015.96,-249 2070,-243.28 2129.97,-230.8 2175.81,-219.93"/>
<polygon fill="#f2dd57" stroke="#f2dd57" points="2176.76,-223.3 2185.66,-217.57 2175.12,-216.5 2176.76,-223.3"/>
</g>
<!-- src/utils/urls.ts -->
<g id="node13" class="node">
<title>src/utils/urls.ts</title>
<polygon fill="none" stroke="black" points="2195.96,-97.5 2195.96,-133.5 2257.96,-133.5 2257.96,-97.5 2195.96,-97.5"/>
<text text-anchor="middle" x="2226.96" y="-111.8" font-family="Times,serif" font-size="14.00">urls.ts</text>
</g>
<!-- src/components/SideBar.tsx&#45;&gt;src/utils/urls.ts -->
<g id="edge13" class="edge">
<title>src/components/SideBar.tsx&#45;&gt;src/utils/urls.ts</title>
<path fill="none" stroke="#f2dd57" d="M932.11,-258.63C935.08,-258 938.05,-257.44 940.96,-257 969.39,-252.69 1948.95,-258.83 1975.96,-249 2025.8,-230.86 2018.69,-192.61 2067.96,-173 2092.59,-163.2 2163.38,-177.1 2186.96,-165 2197.12,-159.79 2205.65,-150.74 2212.19,-141.86"/>
<polygon fill="#f2dd57" stroke="#f2dd57" points="2215.13,-143.77 2217.84,-133.53 2209.34,-139.84 2215.13,-143.77"/>
</g>
<!-- src/views/SearchView.tsx&#45;&gt;src/components/LayoutUtils.tsx -->
<g id="edge19" class="edge">
<title>src/views/SearchView.tsx&#45;&gt;src/components/LayoutUtils.tsx</title>
<path fill="none" stroke="#226e50" d="M1355.1,-372.4C1345.09,-368.94 1334.28,-365.82 1323.96,-364 1311.39,-361.78 413.95,-365.06 404.96,-356 373.99,-324.75 391.62,-298.93 404.96,-257 408.54,-245.78 415.23,-234.87 422.14,-225.67"/>
<polygon fill="#226e50" stroke="#226e50" points="424.96,-227.75 428.46,-217.76 419.49,-223.39 424.96,-227.75"/>
</g>
<!-- src/views/SearchView.tsx&#45;&gt;src/providers/LocalStorageProvider.tsx -->
<g id="edge23" class="edge">
<title>src/views/SearchView.tsx&#45;&gt;src/providers/LocalStorageProvider.tsx</title>
<path fill="none" stroke="#226e50" d="M1458.52,-389.76C1626.53,-390.03 2078.95,-387.76 2137.96,-356 2165.16,-341.36 2212.1,-266.61 2236.01,-226.32"/>
<polygon fill="#226e50" stroke="#226e50" points="2239.11,-227.97 2241.16,-217.57 2233.07,-224.41 2239.11,-227.97"/>
</g>
<!-- src/views/SearchView.tsx&#45;&gt;src/utils/urls.ts -->
<g id="edge26" class="edge">
<title>src/views/SearchView.tsx&#45;&gt;src/utils/urls.ts</title>
<path fill="none" stroke="#226e50" d="M1458.87,-390.13C1578,-390.57 1831.88,-387.6 1912.96,-356 2033.71,-308.95 2021.82,-226.26 2139.96,-173 2159.28,-164.29 2168.63,-175.62 2186.96,-165 2196.6,-159.42 2204.91,-150.59 2211.41,-141.98"/>
<polygon fill="#226e50" stroke="#226e50" points="2214.43,-143.77 2217.3,-133.58 2208.7,-139.76 2214.43,-143.77"/>
</g>
<!-- src/utils/models.ts -->
<g id="node14" class="node">
<title>src/utils/models.ts</title>
<polygon fill="none" stroke="black" points="1871.96,-24.5 1871.96,-60.5 1957.96,-60.5 1957.96,-24.5 1871.96,-24.5"/>
<text text-anchor="middle" x="1914.96" y="-38.8" font-family="Times,serif" font-size="14.00">models.ts</text>
</g>
<!-- src/views/SearchView.tsx&#45;&gt;src/utils/models.ts -->
<g id="edge25" class="edge">
<title>src/views/SearchView.tsx&#45;&gt;src/utils/models.ts</title>
<path fill="none" stroke="#226e50" d="M1458.79,-389.38C1575.12,-388.5 1814.6,-383.35 1839.96,-356 1869.88,-323.74 1862.05,-295.06 1839.96,-257 1836.37,-250.8 1829.56,-255.2 1825.96,-249 1809.01,-219.79 1820.91,-206.4 1825.96,-173 1831.81,-134.36 1829.17,-120.74 1851.96,-89 1858.17,-80.36 1866.52,-72.73 1875.11,-66.3"/>
<polygon fill="#226e50" stroke="#226e50" points="1877.19,-69.13 1883.36,-60.52 1873.17,-63.4 1877.19,-69.13"/>
</g>
<!-- src/components/ApiUrlFooter.tsx -->
<g id="node15" class="node">
<title>src/components/ApiUrlFooter.tsx</title>
<polygon fill="none" stroke="black" points="949.96,-257.5 949.96,-293.5 1083.96,-293.5 1083.96,-257.5 949.96,-257.5"/>
<text text-anchor="middle" x="1016.96" y="-271.8" font-family="Times,serif" font-size="14.00">ApiUrlFooter.tsx</text>
</g>
<!-- src/views/SearchView.tsx&#45;&gt;src/components/ApiUrlFooter.tsx -->
<g id="edge17" class="edge">
<title>src/views/SearchView.tsx&#45;&gt;src/components/ApiUrlFooter.tsx</title>
<path fill="none" stroke="#226e50" d="M1354.68,-372.46C1344.78,-369.05 1334.13,-365.93 1323.96,-364 1298.84,-359.23 1117.33,-366.38 1093.96,-356 1068.5,-344.69 1047.17,-320.68 1033.47,-301.99"/>
<polygon fill="#226e50" stroke="#226e50" points="1036.17,-299.74 1027.55,-293.58 1030.44,-303.77 1036.17,-299.74"/>
</g>
<!-- src/components/IndexSideBar.tsx -->
<g id="node16" class="node">
<title>src/components/IndexSideBar.tsx</title>
<polygon fill="none" stroke="black" points="1597.96,-257.5 1597.96,-293.5 1735.96,-293.5 1735.96,-257.5 1597.96,-257.5"/>
<text text-anchor="middle" x="1666.96" y="-271.8" font-family="Times,serif" font-size="14.00">IndexSideBar.tsx</text>
</g>
<!-- src/views/SearchView.tsx&#45;&gt;src/components/IndexSideBar.tsx -->
<g id="edge18" class="edge">
<title>src/views/SearchView.tsx&#45;&gt;src/components/IndexSideBar.tsx</title>
<path fill="none" stroke="#226e50" d="M1458.63,-388.32C1498.01,-385.31 1548.77,-377.1 1588.96,-356 1613.39,-343.18 1634.81,-319.96 1649,-301.91"/>
<polygon fill="#226e50" stroke="#226e50" points="1652.1,-303.62 1655.36,-293.54 1646.52,-299.38 1652.1,-303.62"/>
</g>
<!-- src/components/QueryActionBar.tsx -->
<g id="node17" class="node">
<title>src/components/QueryActionBar.tsx</title>
<polygon fill="none" stroke="black" points="1102.46,-257.5 1102.46,-293.5 1257.46,-293.5 1257.46,-257.5 1102.46,-257.5"/>
<text text-anchor="middle" x="1179.96" y="-271.8" font-family="Times,serif" font-size="14.00">QueryActionBar.tsx</text>
</g>
<!-- src/views/SearchView.tsx&#45;&gt;src/components/QueryActionBar.tsx -->
<g id="edge20" class="edge">
<title>src/views/SearchView.tsx&#45;&gt;src/components/QueryActionBar.tsx</title>
<path fill="none" stroke="#226e50" d="M1352.22,-372.43C1342.99,-369.28 1333.24,-366.27 1323.96,-364 1299.12,-357.92 1290.11,-366.89 1266.96,-356 1240.32,-343.46 1216.13,-319.88 1200.06,-301.65"/>
<polygon fill="#226e50" stroke="#226e50" points="1202.43,-299.03 1193.27,-293.71 1197.11,-303.58 1202.43,-299.03"/>
</g>
<!-- src/components/QueryEditor/QueryEditor.tsx -->
<g id="node18" class="node">
<title>src/components/QueryEditor/QueryEditor.tsx</title>
<polygon fill="none" stroke="black" points="685.96,-257.5 685.96,-293.5 815.96,-293.5 815.96,-257.5 685.96,-257.5"/>
<text text-anchor="middle" x="750.96" y="-271.8" font-family="Times,serif" font-size="14.00">QueryEditor.tsx</text>
</g>
<!-- src/views/SearchView.tsx&#45;&gt;src/components/QueryEditor/QueryEditor.tsx -->
<g id="edge21" class="edge">
<title>src/views/SearchView.tsx&#45;&gt;src/components/QueryEditor/QueryEditor.tsx</title>
<path fill="none" stroke="#226e50" d="M1355.09,-372.45C1345.08,-369 1334.27,-365.86 1323.96,-364 1296.4,-359.04 845.35,-367.82 819.96,-356 796.05,-344.86 777.16,-321 765.24,-302.31"/>
<polygon fill="#226e50" stroke="#226e50" points="768.14,-300.35 759.95,-293.63 762.16,-303.99 768.14,-300.35"/>
</g>
<!-- src/components/SearchResult/SearchResult.tsx -->
<g id="node19" class="node">
<title>src/components/SearchResult/SearchResult.tsx</title>
<polygon fill="none" stroke="black" points="523.96,-257.5 523.96,-293.5 661.96,-293.5 661.96,-257.5 523.96,-257.5"/>
<text text-anchor="middle" x="592.96" y="-271.8" font-family="Times,serif" font-size="14.00">SearchResult.tsx</text>
</g>
<!-- src/views/SearchView.tsx&#45;&gt;src/components/SearchResult/SearchResult.tsx -->
<g id="edge22" class="edge">
<title>src/views/SearchView.tsx&#45;&gt;src/components/SearchResult/SearchResult.tsx</title>
<path fill="none" stroke="#226e50" d="M1355.09,-372.42C1345.08,-368.97 1334.28,-365.84 1323.96,-364 1288.41,-357.66 707.31,-369.87 673.96,-356 647.46,-344.98 624.89,-320.75 610.36,-301.92"/>
<polygon fill="#226e50" stroke="#226e50" points="613.04,-299.66 604.26,-293.72 607.42,-303.83 613.04,-299.66"/>
</g>
<!-- src/services/client.ts -->
<g id="node20" class="node">
<title>src/services/client.ts</title>
<polygon fill="none" stroke="black" points="1837.96,-181.5 1837.96,-217.5 1911.96,-217.5 1911.96,-181.5 1837.96,-181.5"/>
<text text-anchor="middle" x="1874.96" y="-195.8" font-family="Times,serif" font-size="14.00">client.ts</text>
</g>
<!-- src/views/SearchView.tsx&#45;&gt;src/services/client.ts -->
<g id="edge24" class="edge">
<title>src/views/SearchView.tsx&#45;&gt;src/services/client.ts</title>
<path fill="none" stroke="#226e50" d="M1458.74,-390.01C1587.19,-390.38 1870.42,-387.58 1899.96,-356 1932.75,-320.96 1908.84,-260.88 1890.55,-226.56"/>
<polygon fill="#226e50" stroke="#226e50" points="1893.5,-224.66 1885.6,-217.61 1887.38,-228.05 1893.5,-224.66"/>
</g>
<!-- src/views/IndexesView.tsx&#45;&gt;src/components/LayoutUtils.tsx -->
<g id="edge55" class="edge">
<title>src/views/IndexesView.tsx&#45;&gt;src/components/LayoutUtils.tsx</title>
<path fill="none" stroke="#6f5f77" d="M835.32,-388.03C688.9,-384.44 347.07,-374.14 329.96,-356 299.78,-323.99 301.84,-290.84 329.96,-257 342.39,-242.05 354.97,-256.36 372.96,-249 388.26,-242.74 403.67,-232.94 416.29,-223.78"/>
<polygon fill="#6f5f77" stroke="#6f5f77" points="418.63,-226.4 424.54,-217.6 414.43,-220.8 418.63,-226.4"/>
</g>
<!-- src/views/IndexesView.tsx&#45;&gt;src/utils/models.ts -->
<g id="edge54" class="edge">
<title>src/views/IndexesView.tsx&#45;&gt;src/utils/models.ts</title>
<path fill="none" stroke="#6f5f77" d="M943.59,-372.41C954.01,-368.96 965.25,-365.83 975.96,-364 997.1,-360.39 1731.76,-370.05 1747.96,-356 1793.32,-316.67 1750.83,-135.36 1788.96,-89 1806.83,-67.28 1835.94,-55.92 1861.68,-49.99"/>
<polygon fill="#6f5f77" stroke="#6f5f77" points="1862.64,-53.37 1871.72,-47.9 1861.22,-46.51 1862.64,-53.37"/>
</g>
<!-- src/views/IndexesView.tsx&#45;&gt;src/components/ApiUrlFooter.tsx -->
<g id="edge56" class="edge">
<title>src/views/IndexesView.tsx&#45;&gt;src/components/ApiUrlFooter.tsx</title>
<path fill="none" stroke="#6f5f77" d="M922.52,-372.19C928.6,-367.11 935.15,-361.45 940.96,-356 959.77,-338.39 979.86,-317.26 994.66,-301.21"/>
<polygon fill="#6f5f77" stroke="#6f5f77" points="997.3,-303.52 1001.48,-293.78 992.14,-298.79 997.3,-303.52"/>
</g>
<!-- src/views/IndexesView.tsx&#45;&gt;src/services/client.ts -->
<g id="edge52" class="edge">
<title>src/views/IndexesView.tsx&#45;&gt;src/services/client.ts</title>
<path fill="none" stroke="#6f5f77" d="M943.59,-372.4C954.01,-368.95 965.25,-365.83 975.96,-364 997.98,-360.25 1761.73,-368.9 1779.96,-356 1818.18,-328.95 1790.39,-296.22 1815.96,-257 1823.81,-244.98 1834.67,-233.63 1844.94,-224.3"/>
<polygon fill="#6f5f77" stroke="#6f5f77" points="1847.39,-226.81 1852.61,-217.59 1842.78,-221.54 1847.39,-226.81"/>
</g>
<!-- src/components/Loader.tsx -->
<g id="node24" class="node">
<title>src/components/Loader.tsx</title>
<polygon fill="none" stroke="black" points="272.46,-181.5 272.46,-217.5 363.46,-217.5 363.46,-181.5 272.46,-181.5"/>
<text text-anchor="middle" x="317.96" y="-195.8" font-family="Times,serif" font-size="14.00">Loader.tsx</text>
</g>
<!-- src/views/IndexesView.tsx&#45;&gt;src/components/Loader.tsx -->
<g id="edge53" class="edge">
<title>src/views/IndexesView.tsx&#45;&gt;src/components/Loader.tsx</title>
<path fill="none" stroke="#6f5f77" d="M835.45,-388.21C684.16,-384.92 321.99,-375.07 303.96,-356 271.42,-321.58 289.83,-261.69 304.79,-227.15"/>
<polygon fill="#6f5f77" stroke="#6f5f77" points="308.13,-228.26 309.07,-217.71 301.76,-225.37 308.13,-228.26"/>
</g>
<!-- src/components/ResponseErrorDisplay.tsx -->
<g id="node26" class="node">
<title>src/components/ResponseErrorDisplay.tsx</title>
<polygon fill="none" stroke="black" points="53.46,-181.5 53.46,-217.5 254.46,-217.5 254.46,-181.5 53.46,-181.5"/>
<text text-anchor="middle" x="153.96" y="-195.8" font-family="Times,serif" font-size="14.00">ResponseErrorDisplay.tsx</text>
</g>
<!-- src/views/IndexesView.tsx&#45;&gt;src/components/ResponseErrorDisplay.tsx -->
<g id="edge57" class="edge">
<title>src/views/IndexesView.tsx&#45;&gt;src/components/ResponseErrorDisplay.tsx</title>
<path fill="none" stroke="#6f5f77" d="M835.21,-388.94C685.69,-387.22 329.38,-380.59 280.96,-356 225.33,-327.74 185.41,-262.98 166.42,-226.57"/>
<polygon fill="#6f5f77" stroke="#6f5f77" points="169.48,-224.87 161.84,-217.54 163.24,-228.04 169.48,-224.87"/>
</g>
<!-- src/components/IndexesTable.tsx -->
<g id="node29" class="node">
<title>src/components/IndexesTable.tsx</title>
<polygon fill="none" stroke="black" points="1275.46,-257.5 1275.46,-293.5 1412.46,-293.5 1412.46,-257.5 1275.46,-257.5"/>
<text text-anchor="middle" x="1343.96" y="-271.8" font-family="Times,serif" font-size="14.00">IndexesTable.tsx</text>
</g>
<!-- src/views/IndexesView.tsx&#45;&gt;src/components/IndexesTable.tsx -->
<g id="edge51" class="edge">
<title>src/views/IndexesView.tsx&#45;&gt;src/components/IndexesTable.tsx</title>
<path fill="none" stroke="#6f5f77" d="M944.01,-372.41C954.32,-369 965.41,-365.9 975.96,-364 1007.8,-358.29 1237.36,-369.02 1266.96,-356 1292.47,-344.78 1313.79,-320.76 1327.48,-302.04"/>
<polygon fill="#6f5f77" stroke="#6f5f77" points="1330.51,-303.81 1333.4,-293.62 1324.79,-299.79 1330.51,-303.81"/>
</g>
<!-- src/views/ClusterMembersView.tsx&#45;&gt;src/components/LayoutUtils.tsx -->
<g id="edge61" class="edge">
<title>src/views/ClusterMembersView.tsx&#45;&gt;src/components/LayoutUtils.tsx</title>
<path fill="none" stroke="#e32fe9" d="M1021.72,-372.45C1006.86,-369 990.94,-365.86 975.96,-364 959.26,-361.92 381.79,-367.98 369.96,-356 339.06,-324.68 350.33,-296.38 369.96,-257 376.82,-243.25 388.79,-231.97 401.19,-223.2"/>
<polygon fill="#e32fe9" stroke="#e32fe9" points="403.36,-225.96 409.78,-217.53 399.5,-220.11 403.36,-225.96"/>
</g>
<!-- src/views/ClusterMembersView.tsx&#45;&gt;src/utils/models.ts -->
<g id="edge65" class="edge">
<title>src/views/ClusterMembersView.tsx&#45;&gt;src/utils/models.ts</title>
<path fill="none" stroke="#e32fe9" d="M1144.21,-372.46C1159.07,-369 1174.99,-365.86 1189.96,-364 1206.23,-361.98 1767.9,-367.1 1779.96,-356 1823.84,-315.64 1770.54,-136.95 1805.96,-89 1819.37,-70.85 1841.4,-59.89 1862.16,-53.3"/>
<polygon fill="#e32fe9" stroke="#e32fe9" points="1863.25,-56.63 1871.89,-50.49 1861.31,-49.9 1863.25,-56.63"/>
</g>
<!-- src/views/ClusterMembersView.tsx&#45;&gt;src/components/ApiUrlFooter.tsx -->
<g id="edge59" class="edge">
<title>src/views/ClusterMembersView.tsx&#45;&gt;src/components/ApiUrlFooter.tsx</title>
<path fill="none" stroke="#e32fe9" d="M1072.94,-372.34C1062.13,-353.84 1044.8,-324.16 1032.29,-302.73"/>
<polygon fill="#e32fe9" stroke="#e32fe9" points="1035.15,-300.69 1027.08,-293.82 1029.1,-304.22 1035.15,-300.69"/>
</g>
<!-- src/views/ClusterMembersView.tsx&#45;&gt;src/services/client.ts -->
<g id="edge64" class="edge">
<title>src/views/ClusterMembersView.tsx&#45;&gt;src/services/client.ts</title>
<path fill="none" stroke="#e32fe9" d="M1144.21,-372.45C1159.07,-368.99 1174.99,-365.86 1189.96,-364 1207.33,-361.85 1805.74,-366.19 1819.96,-356 1860.89,-326.68 1871.54,-264.29 1874.2,-228.08"/>
<polygon fill="#e32fe9" stroke="#e32fe9" points="1877.72,-227.94 1874.79,-217.75 1870.73,-227.53 1877.72,-227.94"/>
</g>
<!-- src/views/ClusterMembersView.tsx&#45;&gt;src/components/Loader.tsx -->
<g id="edge62" class="edge">
<title>src/views/ClusterMembersView.tsx&#45;&gt;src/components/Loader.tsx</title>
<path fill="none" stroke="#e32fe9" d="M1021.72,-372.45C1006.86,-368.99 990.94,-365.86 975.96,-364 958.6,-361.85 359.32,-367.31 345.96,-356 309.26,-324.91 309.7,-263.45 313.62,-227.81"/>
<polygon fill="#e32fe9" stroke="#e32fe9" points="317.13,-228.01 314.91,-217.65 310.18,-227.13 317.13,-228.01"/>
</g>
<!-- src/views/ClusterMembersView.tsx&#45;&gt;src/components/ResponseErrorDisplay.tsx -->
<g id="edge63" class="edge">
<title>src/views/ClusterMembersView.tsx&#45;&gt;src/components/ResponseErrorDisplay.tsx</title>
<path fill="none" stroke="#e32fe9" d="M1021.72,-372.44C1006.86,-368.99 990.94,-365.85 975.96,-364 957.52,-361.72 323.39,-364.7 306.96,-356 259.57,-330.9 276.2,-294.61 237.96,-257 224.87,-244.12 208.47,-232.34 193.65,-222.91"/>
<polygon fill="#e32fe9" stroke="#e32fe9" points="195.48,-219.93 185.14,-217.64 191.79,-225.88 195.48,-219.93"/>
</g>
<!-- src/components/JsonEditor.tsx -->
<g id="node28" class="node">
<title>src/components/JsonEditor.tsx</title>
<polygon fill="none" stroke="black" points="1619.96,-24.5 1619.96,-60.5 1735.96,-60.5 1735.96,-24.5 1619.96,-24.5"/>
<text text-anchor="middle" x="1677.96" y="-38.8" font-family="Times,serif" font-size="14.00">JsonEditor.tsx</text>
</g>
<!-- src/views/ClusterMembersView.tsx&#45;&gt;src/components/JsonEditor.tsx -->
<g id="edge60" class="edge">
<title>src/views/ClusterMembersView.tsx&#45;&gt;src/components/JsonEditor.tsx</title>
<path fill="none" stroke="#e32fe9" d="M1144.22,-372.47C1159.07,-369.01 1174.99,-365.87 1189.96,-364 1205.26,-362.09 1734.14,-366.98 1744.96,-356 1802.25,-297.88 1752.46,-251.44 1729.96,-173 1719.42,-136.24 1702.11,-95.58 1690.39,-69.81"/>
<polygon fill="#e32fe9" stroke="#e32fe9" points="1693.56,-68.32 1686.19,-60.7 1687.2,-71.24 1693.56,-68.32"/>
</g>
<!-- src/views/IndexView.tsx&#45;&gt;src/components/LayoutUtils.tsx -->
<g id="edge71" class="edge">
<title>src/views/IndexView.tsx&#45;&gt;src/components/LayoutUtils.tsx</title>
<path fill="none" stroke="#fa9084" d="M1219.02,-372.41C1209.7,-368.95 1199.63,-365.83 1189.96,-364 1179.05,-361.94 397.78,-363.9 389.96,-356 359.01,-324.73 373.4,-297.76 389.96,-257 395.01,-244.59 404.23,-233.41 413.7,-224.34"/>
<polygon fill="#fa9084" stroke="#fa9084" points="416.18,-226.82 421.27,-217.53 411.5,-221.61 416.18,-226.82"/>
</g>
<!-- src/views/IndexView.tsx&#45;&gt;src/utils/models.ts -->
<g id="edge68" class="edge">
<title>src/views/IndexView.tsx&#45;&gt;src/utils/models.ts</title>
<path fill="none" stroke="#fa9084" d="M1295.5,-372.45C1304.96,-369 1315.18,-365.86 1324.96,-364 1338.48,-361.44 1810.32,-365.8 1819.96,-356 1850.82,-324.64 1835.44,-298.19 1819.96,-257 1818.3,-252.58 1814.63,-253.42 1812.96,-249 1801.08,-217.38 1810.96,-206.72 1812.96,-173 1815.19,-135.47 1801.27,-119.71 1822.96,-89 1832.58,-75.38 1847.47,-65.64 1862.47,-58.76"/>
<polygon fill="#fa9084" stroke="#fa9084" points="1863.93,-61.94 1871.79,-54.84 1861.22,-55.49 1863.93,-61.94"/>
</g>
<!-- src/views/IndexView.tsx&#45;&gt;src/components/ApiUrlFooter.tsx -->
<g id="edge72" class="edge">
<title>src/views/IndexView.tsx&#45;&gt;src/components/ApiUrlFooter.tsx</title>
<path fill="none" stroke="#fa9084" d="M1217.5,-372.39C1208.59,-369.11 1199.07,-366.07 1189.96,-364 1169.09,-359.26 1113.31,-365.16 1093.96,-356 1068.93,-344.14 1047.67,-320.43 1033.88,-301.97"/>
<polygon fill="#fa9084" stroke="#fa9084" points="1036.58,-299.74 1027.9,-293.67 1030.9,-303.83 1036.58,-299.74"/>
</g>
<!-- src/views/IndexView.tsx&#45;&gt;src/services/client.ts -->
<g id="edge66" class="edge">
<title>src/views/IndexView.tsx&#45;&gt;src/services/client.ts</title>
<path fill="none" stroke="#fa9084" d="M1295.5,-372.44C1304.95,-368.98 1315.18,-365.85 1324.96,-364 1340.12,-361.14 1869.14,-366.98 1879.96,-356 1913.1,-322.38 1898.67,-262.2 1886.17,-227.39"/>
<polygon fill="#fa9084" stroke="#fa9084" points="1889.38,-225.99 1882.57,-217.87 1882.83,-228.46 1889.38,-225.99"/>
</g>
<!-- src/views/IndexView.tsx&#45;&gt;src/components/Loader.tsx -->
<g id="edge67" class="edge">
<title>src/views/IndexView.tsx&#45;&gt;src/components/Loader.tsx</title>
<path fill="none" stroke="#fa9084" d="M1219.02,-372.4C1209.7,-368.95 1199.63,-365.82 1189.96,-364 1167.5,-359.76 385.33,-369.61 366.96,-356 361.65,-352.06 337.95,-270.9 325.56,-227.44"/>
<polygon fill="#fa9084" stroke="#fa9084" points="328.92,-226.43 322.82,-217.77 322.18,-228.35 328.92,-226.43"/>
</g>
<!-- src/views/IndexView.tsx&#45;&gt;src/components/JsonEditor.tsx -->
<g id="edge70" class="edge">
<title>src/views/IndexView.tsx&#45;&gt;src/components/JsonEditor.tsx</title>
<path fill="none" stroke="#fa9084" d="M1295.5,-372.43C1304.95,-368.98 1315.18,-365.85 1324.96,-364 1340.53,-361.07 1882.46,-365.71 1894.96,-356 1960.01,-305.51 1978.46,-234.73 1923.96,-173 1914.48,-162.25 1873.4,-170 1859.96,-165 1799.25,-142.39 1738.65,-95.98 1704.97,-67.52"/>
<polygon fill="#fa9084" stroke="#fa9084" points="1706.87,-64.54 1697,-60.69 1702.32,-69.86 1706.87,-64.54"/>
</g>
<!-- src/components/IndexSummary.tsx -->
<g id="node30" class="node">
<title>src/components/IndexSummary.tsx</title>
<polygon fill="none" stroke="black" points="1430.46,-257.5 1430.46,-293.5 1579.46,-293.5 1579.46,-257.5 1430.46,-257.5"/>
<text text-anchor="middle" x="1504.96" y="-271.8" font-family="Times,serif" font-size="14.00">IndexSummary.tsx</text>
</g>
<!-- src/views/IndexView.tsx&#45;&gt;src/components/IndexSummary.tsx -->
<g id="edge69" class="edge">
<title>src/views/IndexView.tsx&#45;&gt;src/components/IndexSummary.tsx</title>
<path fill="none" stroke="#fa9084" d="M1297.04,-372.39C1306.08,-369.11 1315.74,-366.07 1324.96,-364 1367.17,-354.54 1382.52,-373.76 1421.96,-356 1448.31,-344.14 1471.41,-320.25 1486.51,-301.75"/>
<polygon fill="#fa9084" stroke="#fa9084" points="1489.42,-303.7 1492.86,-293.68 1483.92,-299.37 1489.42,-303.7"/>
</g>
<!-- src/providers/LocalStorageProvider.tsx&#45;&gt;src/utils/models.ts -->
<g id="edge15" class="edge">
<title>src/providers/LocalStorageProvider.tsx&#45;&gt;src/utils/models.ts</title>
<path fill="none" stroke="#d7a5bd" d="M2323.98,-181.48C2331,-177.17 2337.25,-171.77 2341.96,-165 2361.29,-137.3 2364.55,-114.12 2341.96,-89 2317.4,-61.68 2077.45,-49.45 1968.41,-45.28"/>
<polygon fill="#d7a5bd" stroke="#d7a5bd" points="1968.4,-41.77 1958.27,-44.9 1968.14,-48.77 1968.4,-41.77"/>
</g>
<!-- src/utils/urls.ts&#45;&gt;src/utils/models.ts -->
<g id="edge16" class="edge">
<title>src/utils/urls.ts&#45;&gt;src/utils/models.ts</title>
<path fill="none" stroke="#79a9d9" d="M2203.69,-97.47C2198.4,-94.24 2192.65,-91.18 2186.96,-89 2114.38,-61.13 2024.43,-50.31 1968.36,-46.12"/>
<polygon fill="#79a9d9" stroke="#79a9d9" points="1968.51,-42.62 1958.29,-45.41 1968.02,-49.61 1968.51,-42.62"/>
</g>
<!-- src/components/ApiUrlFooter.tsx&#45;&gt;src/utils/theme.ts -->
<g id="edge27" class="edge">
<title>src/components/ApiUrlFooter.tsx&#45;&gt;src/utils/theme.ts</title>
<path fill="none" stroke="#ba5655" d="M1084.01,-258.37C1087.36,-257.85 1090.7,-257.38 1093.96,-257 1105.86,-255.61 1947.54,-257.51 1955.96,-249 1979.74,-225 1966.94,-204.95 1955.96,-173 1952.03,-161.54 1944.71,-150.62 1937.16,-141.49"/>
<polygon fill="#ba5655" stroke="#ba5655" points="1939.77,-139.15 1930.54,-133.95 1934.51,-143.77 1939.77,-139.15"/>
</g>
<!-- src/components/IndexSideBar.tsx&#45;&gt;src/utils/models.ts -->
<g id="edge28" class="edge">
<title>src/components/IndexSideBar.tsx&#45;&gt;src/utils/models.ts</title>
<path fill="none" stroke="#af26ee" d="M1736.19,-274.03C1850.27,-272.72 2068.2,-267.76 2097.96,-249 2130.61,-228.42 2107.16,-193.33 2139.96,-173 2157.17,-162.33 2307.97,-179.62 2321.96,-165 2345.32,-140.6 2344.48,-114.18 2321.96,-89 2298.77,-63.07 2073.12,-50.19 1968.16,-45.57"/>
<polygon fill="#af26ee" stroke="#af26ee" points="1968.23,-42.07 1958.09,-45.13 1967.93,-49.06 1968.23,-42.07"/>
</g>
<!-- src/components/IndexSideBar.tsx&#45;&gt;src/services/client.ts -->
<g id="edge29" class="edge">
<title>src/components/IndexSideBar.tsx&#45;&gt;src/services/client.ts</title>
<path fill="none" stroke="#af26ee" d="M1722.88,-257.38C1731.31,-254.66 1739.89,-251.81 1747.96,-249 1774.8,-239.66 1804.49,-228.38 1828.41,-219.04"/>
<polygon fill="#af26ee" stroke="#af26ee" points="1829.91,-222.21 1837.95,-215.31 1827.36,-215.7 1829.91,-222.21"/>
</g>
<!-- src/components/TimeRangeSelect.tsx -->
<g id="node21" class="node">
<title>src/components/TimeRangeSelect.tsx</title>
<polygon fill="none" stroke="black" points="1553.46,-181.5 1553.46,-217.5 1720.46,-217.5 1720.46,-181.5 1553.46,-181.5"/>
<text text-anchor="middle" x="1636.96" y="-195.8" font-family="Times,serif" font-size="14.00">TimeRangeSelect.tsx</text>
</g>
<!-- src/components/QueryActionBar.tsx&#45;&gt;src/components/TimeRangeSelect.tsx -->
<g id="edge31" class="edge">
<title>src/components/QueryActionBar.tsx&#45;&gt;src/components/TimeRangeSelect.tsx</title>
<path fill="none" stroke="#0435ac" d="M1257.72,-258.67C1260.84,-258.1 1263.93,-257.54 1266.96,-257 1360.62,-240.44 1468.13,-224.35 1543.04,-213.6"/>
<polygon fill="#0435ac" stroke="#0435ac" points="1543.98,-217 1553.39,-212.12 1542.99,-210.07 1543.98,-217"/>
</g>
<!-- src/utils/SearchComponentProps.ts -->
<g id="node22" class="node">
<title>src/utils/SearchComponentProps.ts</title>
<polygon fill="none" stroke="black" points="1970.46,-97.5 1970.46,-133.5 2177.46,-133.5 2177.46,-97.5 1970.46,-97.5"/>
<text text-anchor="middle" x="2073.96" y="-111.8" font-family="Times,serif" font-size="14.00">SearchComponentProps.ts</text>
</g>
<!-- src/components/QueryActionBar.tsx&#45;&gt;src/utils/SearchComponentProps.ts -->
<g id="edge32" class="edge">
<title>src/components/QueryActionBar.tsx&#45;&gt;src/utils/SearchComponentProps.ts</title>
<path fill="none" stroke="#0435ac" d="M1257.64,-258.13C1260.78,-257.7 1263.9,-257.32 1266.96,-257 1287.1,-254.88 1978.44,-259.15 1995.96,-249 2035.19,-226.29 2056.7,-175.41 2066.73,-143.72"/>
<polygon fill="#0435ac" stroke="#0435ac" points="2070.19,-144.37 2069.7,-133.78 2063.49,-142.36 2070.19,-144.37"/>
</g>
<!-- src/components/QueryEditor/QueryEditor.tsx&#45;&gt;src/utils/theme.ts -->
<g id="edge38" class="edge">
<title>src/components/QueryEditor/QueryEditor.tsx&#45;&gt;src/utils/theme.ts</title>
<path fill="none" stroke="#ed8912" d="M816.26,-257.51C817.5,-257.33 818.74,-257.16 819.96,-257 835.17,-255.05 1913.16,-259.88 1923.96,-249 1951.3,-221.46 1937.59,-173 1924.93,-142.94"/>
<polygon fill="#ed8912" stroke="#ed8912" points="1928,-141.23 1920.74,-133.51 1921.6,-144.07 1928,-141.23"/>
</g>
<!-- src/components/QueryEditor/QueryEditor.tsx&#45;&gt;src/utils/SearchComponentProps.ts -->
<g id="edge37" class="edge">
<title>src/components/QueryEditor/QueryEditor.tsx&#45;&gt;src/utils/SearchComponentProps.ts</title>
<path fill="none" stroke="#ed8912" d="M816.26,-257.51C817.5,-257.33 818.74,-257.16 819.96,-257 850.71,-253.05 1907.62,-261.55 1935.96,-249 1977.95,-230.41 1972.67,-204.63 2005.96,-173 2017.9,-161.66 2031.77,-149.91 2043.86,-140.07"/>
<polygon fill="#ed8912" stroke="#ed8912" points="2046.3,-142.6 2051.9,-133.6 2041.91,-137.15 2046.3,-142.6"/>
</g>
<!-- src/components/QueryEditor/config.ts -->
<g id="node23" class="node">
<title>src/components/QueryEditor/config.ts</title>
<polygon fill="none" stroke="black" points="725.46,-181.5 725.46,-217.5 802.46,-217.5 802.46,-181.5 725.46,-181.5"/>
<text text-anchor="middle" x="763.96" y="-195.8" font-family="Times,serif" font-size="14.00">config.ts</text>
</g>
<!-- src/components/QueryEditor/QueryEditor.tsx&#45;&gt;src/components/QueryEditor/config.ts -->
<g id="edge36" class="edge">
<title>src/components/QueryEditor/QueryEditor.tsx&#45;&gt;src/components/QueryEditor/config.ts</title>
<path fill="none" stroke="#ed8912" d="M753.98,-257.34C755.54,-248.46 757.48,-237.43 759.23,-227.45"/>
<polygon fill="#ed8912" stroke="#ed8912" points="762.68,-228.02 760.97,-217.57 755.79,-226.81 762.68,-228.02"/>
</g>
<!-- src/components/SearchResult/SearchResult.tsx&#45;&gt;src/utils/models.ts -->
<g id="edge40" class="edge">
<title>src/components/SearchResult/SearchResult.tsx&#45;&gt;src/utils/models.ts</title>
<path fill="none" stroke="#269acc" d="M662.18,-258.56C666.16,-257.95 670.1,-257.42 673.96,-257 708.48,-253.2 1891.04,-260.03 1923.96,-249 1977.57,-231.04 1972.61,-191.68 2025.96,-173 2038.61,-168.57 2257.65,-174.63 2266.96,-165 2278.71,-152.86 2278.11,-101.68 2266.96,-89 2247.58,-66.95 2061.93,-52.51 1968.34,-46.57"/>
<polygon fill="#269acc" stroke="#269acc" points="1968.42,-43.07 1958.22,-45.94 1967.98,-50.06 1968.42,-43.07"/>
</g>
<!-- src/components/SearchResult/SearchResult.tsx&#45;&gt;src/components/Loader.tsx -->
<g id="edge41" class="edge">
<title>src/components/SearchResult/SearchResult.tsx&#45;&gt;src/components/Loader.tsx</title>
<path fill="none" stroke="#269acc" d="M523.86,-257.6C522.55,-257.39 521.25,-257.19 519.96,-257 487.59,-252.28 403.24,-261.39 372.96,-249 360.13,-243.75 348.27,-234.19 338.87,-224.94"/>
<polygon fill="#269acc" stroke="#269acc" points="341.34,-222.46 331.88,-217.67 336.29,-227.31 341.34,-222.46"/>
</g>
<!-- src/components/SearchResult/ResultTable.tsx -->
<g id="node25" class="node">
<title>src/components/SearchResult/ResultTable.tsx</title>
<polygon fill="none" stroke="black" points="534.46,-181.5 534.46,-217.5 661.46,-217.5 661.46,-181.5 534.46,-181.5"/>
<text text-anchor="middle" x="597.96" y="-195.8" font-family="Times,serif" font-size="14.00">ResultTable.tsx</text>
</g>
<!-- src/components/SearchResult/SearchResult.tsx&#45;&gt;src/components/SearchResult/ResultTable.tsx -->
<g id="edge42" class="edge">
<title>src/components/SearchResult/SearchResult.tsx&#45;&gt;src/components/SearchResult/ResultTable.tsx</title>
<path fill="none" stroke="#269acc" d="M594.12,-257.34C594.72,-248.56 595.45,-237.66 596.12,-227.77"/>
<polygon fill="#269acc" stroke="#269acc" points="599.63,-227.78 596.81,-217.57 592.64,-227.31 599.63,-227.78"/>
</g>
<!-- src/components/SearchResult/SearchResult.tsx&#45;&gt;src/components/ResponseErrorDisplay.tsx -->
<g id="edge43" class="edge">
<title>src/components/SearchResult/SearchResult.tsx&#45;&gt;src/components/ResponseErrorDisplay.tsx</title>
<path fill="none" stroke="#269acc" d="M523.87,-257.56C522.56,-257.36 521.26,-257.17 519.96,-257 463.55,-249.44 319.47,-261.6 263.96,-249 239.43,-243.43 213.61,-232.35 193.16,-222.19"/>
<polygon fill="#269acc" stroke="#269acc" points="194.66,-219.03 184.16,-217.61 191.49,-225.26 194.66,-219.03"/>
</g>
<!-- src/services/client.ts&#45;&gt;src/utils/models.ts -->
<g id="edge30" class="edge">
<title>src/services/client.ts&#45;&gt;src/utils/models.ts</title>
<path fill="none" stroke="#f2adf4" d="M1867.83,-181.32C1859.7,-159 1849.21,-119.3 1862.96,-89 1866.67,-80.83 1872.64,-73.56 1879.25,-67.35"/>
<polygon fill="#f2adf4" stroke="#f2adf4" points="1881.86,-69.72 1887.19,-60.56 1877.31,-64.4 1881.86,-69.72"/>
</g>
<!-- src/components/TimeRangeSelect.tsx&#45;&gt;src/utils/models.ts -->
<g id="edge33" class="edge">
<title>src/components/TimeRangeSelect.tsx&#45;&gt;src/utils/models.ts</title>
<path fill="none" stroke="#cf5a00" d="M1649.65,-181.3C1668.43,-157.08 1705.97,-113.17 1747.96,-89 1783.01,-68.83 1827.36,-57.29 1861.55,-50.88"/>
<polygon fill="#cf5a00" stroke="#cf5a00" points="1862.58,-54.25 1871.81,-49.05 1861.35,-47.36 1862.58,-54.25"/>
</g>
<!-- src/components/TimeRangeSelect.tsx&#45;&gt;src/utils/SearchComponentProps.ts -->
<g id="edge34" class="edge">
<title>src/components/TimeRangeSelect.tsx&#45;&gt;src/utils/SearchComponentProps.ts</title>
<path fill="none" stroke="#cf5a00" d="M1720.54,-185.85C1753.35,-181.25 1791.36,-176.35 1825.96,-173 1885.79,-167.2 1902.47,-178.84 1960.96,-165 1985.83,-159.12 2012.14,-148.14 2033.11,-138.11"/>
<polygon fill="#cf5a00" stroke="#cf5a00" points="2034.9,-141.13 2042.35,-133.59 2031.83,-134.84 2034.9,-141.13"/>
</g>
<!-- src/utils/SearchComponentProps.ts&#45;&gt;src/utils/models.ts -->
<g id="edge35" class="edge">
<title>src/utils/SearchComponentProps.ts&#45;&gt;src/utils/models.ts</title>
<path fill="none" stroke="#e43094" d="M2035.88,-97.49C2013.92,-87.69 1986.1,-75.27 1962.69,-64.81"/>
<polygon fill="#e43094" stroke="#e43094" points="1963.85,-61.5 1953.29,-60.61 1960.99,-67.89 1963.85,-61.5"/>
</g>
<!-- src/components/QueryEditor/config.ts&#45;&gt;src/utils/models.ts -->
<g id="edge39" class="edge">
<title>src/components/QueryEditor/config.ts&#45;&gt;src/utils/models.ts</title>
<path fill="none" stroke="#e94a41" d="M787.98,-181.35C793.92,-177.95 800.45,-174.85 806.96,-173 828.66,-166.82 1194.66,-178.19 1212.96,-165 1242.04,-144.04 1211.26,-110.47 1239.96,-89 1285.23,-55.14 1691.61,-65.5 1747.96,-61 1785.99,-57.96 1828.76,-53.46 1861.51,-49.78"/>
<polygon fill="#e94a41" stroke="#e94a41" points="1862.22,-53.22 1871.77,-48.62 1861.44,-46.27 1862.22,-53.22"/>
</g>
<!-- src/components/SearchResult/ResultTable.tsx&#45;&gt;src/utils/models.ts -->
<g id="edge44" class="edge">
<title>src/components/SearchResult/ResultTable.tsx&#45;&gt;src/utils/models.ts</title>
<path fill="none" stroke="#f42d7d" d="M641.18,-181.45C651.74,-177.99 663.13,-174.85 673.96,-173 688.45,-170.52 1191.99,-174.77 1202.96,-165 1228.41,-142.34 1187.95,-112.13 1212.96,-89 1256.68,-48.59 1688.62,-65.66 1747.96,-61 1785.99,-58.01 1828.77,-53.51 1861.51,-49.82"/>
<polygon fill="#f42d7d" stroke="#f42d7d" points="1862.23,-53.26 1871.77,-48.65 1861.44,-46.3 1862.23,-53.26"/>
</g>
<!-- src/components/SearchResult/Row.tsx -->
<g id="node27" class="node">
<title>src/components/SearchResult/Row.tsx</title>
<polygon fill="none" stroke="black" points="589.96,-97.5 589.96,-133.5 661.96,-133.5 661.96,-97.5 589.96,-97.5"/>
<text text-anchor="middle" x="625.96" y="-111.8" font-family="Times,serif" font-size="14.00">Row.tsx</text>
</g>
<!-- src/components/SearchResult/ResultTable.tsx&#45;&gt;src/components/SearchResult/Row.tsx -->
<g id="edge45" class="edge">
<title>src/components/SearchResult/ResultTable.tsx&#45;&gt;src/components/SearchResult/Row.tsx</title>
<path fill="none" stroke="#f42d7d" d="M603.9,-181.11C607.68,-170.06 612.64,-155.53 616.9,-143.05"/>
<polygon fill="#f42d7d" stroke="#f42d7d" points="620.21,-144.18 620.13,-133.58 613.59,-141.92 620.21,-144.18"/>
</g>
<!-- src/components/ResponseErrorDisplay.tsx&#45;&gt;src/utils/models.ts -->
<g id="edge50" class="edge">
<title>src/components/ResponseErrorDisplay.tsx&#45;&gt;src/utils/models.ts</title>
<path fill="none" stroke="#1a9ded" d="M217.25,-181.46C232.44,-178.03 248.69,-174.9 263.96,-173 354.4,-161.76 583.14,-172.43 673.96,-165 908.94,-145.77 964.32,-111.92 1198.96,-89 1442.12,-65.25 1504.38,-79.96 1747.96,-61 1785.99,-58.04 1828.77,-53.53 1861.51,-49.84"/>
<polygon fill="#1a9ded" stroke="#1a9ded" points="1862.23,-53.28 1871.77,-48.67 1861.44,-46.32 1862.23,-53.28"/>
</g>
<!-- src/components/SearchResult/Row.tsx&#45;&gt;src/utils/models.ts -->
<g id="edge46" class="edge">
<title>src/components/SearchResult/Row.tsx&#45;&gt;src/utils/models.ts</title>
<path fill="none" stroke="#032d10" d="M648.18,-97.38C653.71,-93.98 659.82,-90.88 665.96,-89 780.97,-53.84 1627.96,-68.83 1747.96,-61 1786.03,-58.52 1828.8,-54 1861.54,-50.18"/>
<polygon fill="#032d10" stroke="#032d10" points="1862.27,-53.62 1871.79,-48.97 1861.45,-46.66 1862.27,-53.62"/>
</g>
<!-- src/components/SearchResult/Row.tsx&#45;&gt;src/components/JsonEditor.tsx -->
<g id="edge48" class="edge">
<title>src/components/SearchResult/Row.tsx&#45;&gt;src/components/JsonEditor.tsx</title>
<path fill="none" stroke="#032d10" d="M648.2,-97.47C653.73,-94.06 659.84,-90.94 665.96,-89 755.32,-60.75 1397.36,-48 1609.86,-44.52"/>
<polygon fill="#032d10" stroke="#032d10" points="1610.01,-48.02 1619.95,-44.36 1609.9,-41.02 1610.01,-48.02"/>
</g>
<!-- src/components/JsonEditor.tsx&#45;&gt;src/utils/theme.ts -->
<g id="edge49" class="edge">
<title>src/components/JsonEditor.tsx&#45;&gt;src/utils/theme.ts</title>
<path fill="none" stroke="#fa7f94" d="M1734.29,-60.59C1773.23,-72.41 1824.57,-87.98 1862.04,-99.35"/>
<polygon fill="#fa7f94" stroke="#fa7f94" points="1861.15,-102.74 1871.74,-102.29 1863.19,-96.04 1861.15,-102.74"/>
</g>
<!-- src/components/IndexesTable.tsx&#45;&gt;src/utils/models.ts -->
<g id="edge58" class="edge">
<title>src/components/IndexesTable.tsx&#45;&gt;src/utils/models.ts</title>
<path fill="none" stroke="#21bda3" d="M1412.73,-258.26C1415.84,-257.78 1418.93,-257.36 1421.96,-257 1438.74,-255.03 2015.23,-257.25 2029.96,-249 2064.82,-229.49 2043.36,-192.97 2077.96,-173 2097.61,-161.66 2266.24,-181.35 2281.96,-165 2305.38,-140.65 2304.33,-114.31 2281.96,-89 2261.56,-65.91 2065.32,-51.86 1968.48,-46.28"/>
<polygon fill="#21bda3" stroke="#21bda3" points="1968.48,-42.77 1958.3,-45.7 1968.09,-49.76 1968.48,-42.77"/>
</g>
<!-- src/components/IndexSummary.tsx&#45;&gt;src/utils/models.ts -->
<g id="edge73" class="edge">
<title>src/components/IndexSummary.tsx&#45;&gt;src/utils/models.ts</title>
<path fill="none" stroke="#2109b4" d="M1579.5,-258.21C1582.69,-257.75 1585.86,-257.35 1588.96,-257 1602.47,-255.5 2067.27,-257.38 2077.96,-249 2105.45,-227.45 2070.73,-194.86 2097.96,-173 2115.66,-158.8 2286.24,-181.35 2301.96,-165 2325.38,-140.65 2324.41,-114.24 2301.96,-89 2280.15,-64.47 2068.97,-50.98 1968.1,-45.89"/>
<polygon fill="#2109b4" stroke="#2109b4" points="1968.27,-42.4 1958.11,-45.4 1967.92,-49.39 1968.27,-42.4"/>
</g>
</g>
</svg>
